<svg width="45" height="50" viewBox="0 0 45 50" fill="none" xmlns="http://www.w3.org/2000/svg">
<path d="M40.645 5.25C38.3086 3.25 35.453 2 32.3378 1.25C31.559 1 26.6266 0 22.9923 0C22.9923 0 22.7327 0 22.4731 0C22.4731 0 22.2135 0 21.9539 0C18.3195 0 13.1275 1 12.3487 1.25C9.49314 2 6.63755 3.25 4.30117 5.25C-0.890801 9.75 -0.890801 16.75 1.70518 22.5C4.30117 28.75 7.15675 34.25 11.0507 39.75C14.1659 44 17.5407 50 22.4731 50C27.4054 50 30.7802 44 34.155 39.75C38.049 34.5 40.9046 28.75 43.5005 22.5C45.8369 16.75 45.8369 9.75 40.645 5.25Z" fill="white"/>
</svg>
