<svg width="50" height="50" viewBox="0 0 50 50" fill="none" xmlns="http://www.w3.org/2000/svg">
<g clip-path="url(#clip0_95_33)">
<path d="M25 0C38.8078 0 50 11.1922 50 25C50 38.8078 38.8078 50 25 50C11.1922 50 0 38.8078 0 25C0 11.1922 11.1922 0 25 0ZM35.9162 14.5416C35.3031 14.4707 34.5344 14.6369 33.6731 14.9475C32.0997 15.5147 11.9886 24.0546 10.8277 24.5483C9.72613 25.0171 8.68387 25.5274 8.68231 26.2665C8.68231 26.7852 8.99197 27.0772 9.84197 27.3804C10.7263 27.696 12.9544 28.3728 14.2701 28.7353C15.5373 29.0853 16.9809 28.7791 17.7887 28.2776C18.645 27.7448 28.5356 21.1271 29.245 20.5475C29.9544 19.9678 30.5175 20.7124 29.9378 21.2921C29.3565 21.8733 22.5689 28.4606 21.6736 29.3731C20.5861 30.481 21.359 31.6298 22.0887 32.0892C22.9215 32.6142 28.9095 36.6288 29.8126 37.2742C30.7158 37.9179 31.6302 38.211 32.4677 38.211C33.3052 38.211 33.7442 37.1073 34.1614 35.8276C34.6505 34.3292 36.9411 19.3866 37.2223 16.4428C37.3067 15.5522 37.0262 14.9582 36.4746 14.6942C36.3078 14.6141 36.1205 14.5652 35.9162 14.5416Z" fill="white"/>
</g>
<defs>
<clipPath id="clip0_95_33">
<rect width="50" height="50" fill="white"/>
</clipPath>
</defs>
</svg>
