<svg width="50" height="52" viewBox="0 0 50 52" fill="none" xmlns="http://www.w3.org/2000/svg">
<path fill-rule="evenodd" clip-rule="evenodd" d="M3.51472 3.58945C0 7.17889 0 12.956 0 24.5103V26.5528C0 38.1071 0 43.8842 3.51472 47.4736C7.02944 51.0631 12.6863 51.0631 24 51.0631H26C37.3137 51.0631 42.9706 51.0631 46.4853 47.4736C50 43.8842 50 38.1071 50 26.5528V24.5103C50 12.956 50 7.17889 46.4853 3.58945C42.9706 0 37.3137 0 26 0H24C12.6863 0 7.02944 0 3.51472 3.58945ZM8.43758 15.5318C8.70841 28.8082 15.2083 36.7868 26.6042 36.7868H27.2501V29.1911C31.4376 29.6167 34.6041 32.7443 35.8749 36.7868H41.7918C40.1668 30.7443 35.8957 27.4039 33.229 26.1273C35.8957 24.5529 39.6457 20.7232 40.5416 15.5318H35.1664C33.9997 19.7445 30.5418 23.5742 27.2501 23.9359V15.5318H21.875V30.2549C18.5416 29.4039 14.3334 25.2763 14.1459 15.5318H8.43758Z" fill="white"/>
</svg>
